<!DOCTYPE svg PUBLIC "-//W3C//DTD SVG 1.1//EN" "http://www.w3.org/Graphics/SVG/1.1/DTD/svg11.dtd">
<!-- Uploaded to: SVG Repo, www.svgrepo.com, Transformed by: SVG Repo Mixer Tools -->
<svg fill="#43A047" version="1.1" id="Capa_1" xmlns="http://www.w3.org/2000/svg" xmlns:xlink="http://www.w3.org/1999/xlink" width="800px" height="800px" viewBox="-3.16 -3.16 37.96 37.96" xml:space="preserve" transform="matrix(1, 0, 0, 1, 0, 0)rotate(0)">
<g id="SVGRepo_bgCarrier" stroke-width="0"/>
<g id="SVGRepo_tracerCarrier" stroke-linecap="round" stroke-linejoin="round"/>
<g id="SVGRepo_iconCarrier"> <g> <g> <rect x="0.715" y="29.695" width="30.211" height="1.945"/> <circle cx="16.533" cy="9.143" r="2.583"/> <polygon points="16.429,27.629 16.556,28.42 17.285,28.304 18.117,28.025 18.146,28.166 19.093,28.015 18.951,27.134 18.936,27.038 18.92,26.93 18.929,26.928 18.076,23.845 17.908,20.021 18.193,19.979 18.193,12.106 15.654,12.106 14.503,12.106 14.602,15.807 15.535,15.646 15.535,13.002 15.535,12.748 15.79,12.748 17.242,12.748 17.498,12.748 17.498,13.002 17.498,16.814 17.488,17.069 17.488,17.08 17.277,17.117 14.687,17.569 14.644,17.578 14.644,19.979 14.871,19.982 14.088,22.93 13.463,27.086 13.444,27.257 13.295,27.239 12.41,27.325 12.317,28.122 13.052,28.208 13.926,28.167 13.92,28.31 14.868,28.42 14.973,27.532 14.984,27.438 15.002,27.284 15.014,27.286 15.633,23.487 16.267,21.338 16.49,23.896 17.406,27.282 17.258,27.306 "/> <polygon points="17.234,16.865 17.234,16.814 17.242,16.814 17.242,13.002 15.79,13.002 15.79,15.859 14.608,16.063 12.804,16.375 13.024,17.599 14.643,17.317 "/> <path d="M6.013,8.298c2.329,0.516,5.688,0.798,5.723,0.802l0.504,0.041l-1.3-1.94c1.433-0.886,2.228-2.163,2.136-3.459 c-0.16-2.285-2.995-3.954-6.318-3.721C3.433,0.254,0.86,2.305,1.021,4.589C1.14,6.271,2.959,7.622,6.013,8.298z M6.792,0.507 c3.055-0.215,5.655,1.251,5.797,3.269c0.083,1.17-0.708,2.341-2.115,3.135L10.245,7.04l1.022,1.527 c-1.025-0.1-3.39-0.354-5.149-0.745C4.78,7.525,1.653,6.614,1.508,4.556C1.366,2.539,3.736,0.723,6.792,0.507z"/> <circle cx="27.05" cy="8.995" r="2.588"/> <polygon points="24.268,27.923 24.26,28.062 25.211,28.177 25.316,27.286 25.326,27.19 25.345,27.038 25.357,27.04 26.145,23.441 24.535,23.329 23.802,26.839 23.783,27.012 23.635,26.993 22.747,27.079 22.654,27.878 23.391,27.964 "/> <polygon points="26.945,27.516 27.074,28.311 27.805,28.192 28.638,27.916 28.668,28.054 29.615,27.902 29.474,27.021 29.458,26.924 29.441,26.815 29.449,26.813 28.598,23.725 28.429,19.894 28.715,19.853 28.715,11.964 26.171,11.964 25.017,11.964 25.095,16.296 26.117,12.229 26.371,12.313 27.974,12.719 28.15,12.763 28.107,12.94 26.41,19.663 26.367,19.84 26.188,19.793 26.146,19.774 26.141,19.942 27.672,20.016 27.455,23.504 26.964,23.482 27.924,27.169 27.777,27.192 "/> <path d="M27.387,20.204l-1.472-0.087l0.03-0.602l0.229,0.062l1.666-6.618l-1.475-0.385l-1.203,4.678v0.07l-0.463,1.866l0.39,0.103 l-0.358,0.133l-0.037,0.625l-1.654-0.117l-0.165,3.073l4.34,0.291L27.387,20.204z M25.553,20.021l-0.484-0.03l0.016-0.287 l0.484,0.028L25.553,20.021z"/> </g> </g> </g>
</svg>