<!DOCTYPE svg PUBLIC "-//W3C//DTD SVG 1.1//EN" "http://www.w3.org/Graphics/SVG/1.1/DTD/svg11.dtd">
<!-- Uploaded to: SVG Repo, www.svgrepo.com, Transformed by: SVG Repo Mixer Tools -->
<svg fill="rgb(67, 160, 71)" height="256px" width="256px" version="1.1" id="Layer_1" xmlns="http://www.w3.org/2000/svg" xmlns:xlink="http://www.w3.org/1999/xlink" viewBox="0 0 512 512" xml:space="preserve" stroke="rgb(67, 160, 71)">
<g id="SVGRepo_bgCarrier" stroke-width="0"/>
<g id="SVGRepo_tracerCarrier" stroke-linecap="round" stroke-linejoin="round"/>
<g id="SVGRepo_iconCarrier"> <g> <g> <path d="M442.45,307.287c-5.742-20.319-22.292-36.524-43.776-40.824l-20.599-4.12v-39.702c0-27.593-22.446-50.039-50.039-50.039 H227.956c-27.484,0-49.829,22.275-50.007,49.718l-66.751-13.35V89.203c0-27.593-22.446-50.039-50.039-50.039H16.68 C7.471,39.163,0,46.629,0,55.843c0,9.214,7.471,16.68,16.68,16.68h44.479c9.197,0,16.68,7.483,16.68,16.68 c0,151.079,0,125.562,0,218.632c-37.776,7.938-66.231,41.5-66.231,81.603c0,45.988,37.41,83.399,83.399,83.399 c40.277,0,73.969-28.697,81.717-66.719h170.16c7.748,38.022,41.44,66.719,81.717,66.719c45.988,0,83.399-37.41,83.399-83.399 C512,348.175,481.855,313.913,442.45,307.287z M95.007,439.477c-27.593,0-50.039-22.447-50.039-50.039 c0-27.509,22.316-49.88,49.795-50.015c27.479,0.135,49.796,22.504,49.796,50.015C144.558,418.855,121.138,439.477,95.007,439.477z M344.714,255.671l-133.438-26.688v-6.344c0-9.197,7.483-16.68,16.68-16.68h100.078c9.197,0,16.68,7.482,16.68,16.68V255.671z M428.601,439.477c-27.593,0-50.039-22.447-50.039-50.039s22.446-50.039,50.039-50.039s50.039,22.446,50.039,50.039 S456.195,439.477,428.601,439.477z"/> </g> </g> </g>
</svg>