<!DOCTYPE svg PUBLIC "-//W3C//DTD SVG 1.1//EN" "http://www.w3.org/Graphics/SVG/1.1/DTD/svg11.dtd">
<!-- Uploaded to: SVG Repo, www.svgrepo.com, Transformed by: SVG Repo Mixer Tools -->
<svg height="800px" width="800px" version="1.1" id="Layer_1" xmlns="http://www.w3.org/2000/svg" xmlns:xlink="http://www.w3.org/1999/xlink" viewBox="0 0 512.001 512.001" xml:space="preserve" fill="rgb(67, 160, 71)" stroke="rgb(67, 160, 71)">
<g id="SVGRepo_bgCarrier" stroke-width="0"/>
<g id="SVGRepo_tracerCarrier" stroke-linecap="round" stroke-linejoin="round"/>
<g id="SVGRepo_iconCarrier"> <g> <path style="fill:rgb(67, 160, 71);" d="M91.062,358.873c36.62-6.305,64.482-38.219,64.482-76.641c0-16.4-5.077-31.614-13.744-44.158 c-5.716-8.273-6.748-18.902-2.461-27.998c4.14-8.783,6.455-18.595,6.455-28.949c0-13.701-4.054-26.452-11.026-37.126 c-7.249-11.097-8.294-25.233-2.972-37.372c3.525-8.039,5.307-17.017,4.866-26.455c-1.417-30.322-26.136-54.868-56.467-56.083 C46.531,22.742,18.814,49.635,18.814,83c0,8.416,1.765,16.418,4.945,23.659c5.324,12.126,4.256,26.256-2.985,37.345 c-6.97,10.674-11.024,23.424-11.024,37.124c0,10.356,2.317,20.169,6.457,28.953c4.242,9,3.392,19.588-2.296,27.753 C4.553,251.268-0.674,267.796,0.07,285.574c1.571,37.532,30.187,68.313,66.513,73.62L91.062,358.873z"/> <path style="fill:rgb(67, 160, 71);" d="M268.271,358.873c36.62-6.305,64.482-38.219,64.482-76.641c0-16.4-5.077-31.614-13.744-44.158 c-5.716-8.273-6.748-18.902-2.461-27.998c4.14-8.783,6.455-18.595,6.455-28.949c0-13.701-4.054-26.452-11.026-37.126 c-7.249-11.097-8.294-25.233-2.972-37.372c3.525-8.039,5.307-17.017,4.866-26.455c-1.417-30.322-26.136-54.868-56.467-56.083 C223.74,22.742,196.023,49.635,196.023,83c0,8.416,1.765,16.418,4.945,23.659c5.324,12.126,4.256,26.256-2.985,37.345 c-6.971,10.674-11.024,23.424-11.024,37.124c0,10.356,2.317,20.169,6.457,28.953c4.242,9,3.392,19.588-2.296,27.753 c-9.358,13.435-14.586,29.962-13.841,47.741c1.571,37.532,30.187,68.313,66.513,73.62L268.271,358.873z"/> </g> <g> <path style="fill:#rgb(67, 160, 71);" d="M319.444,237.232c-5.824-8.198-6.995-18.812-2.828-27.964c4.024-8.837,6.211-18.678,6.075-29.032 c-0.179-13.7-4.401-26.397-11.511-36.978c-7.393-11.002-8.625-25.122-3.461-37.33c3.419-8.085,5.083-17.085,4.519-26.517 c-1.242-20.737-13.362-38.62-30.615-48.109c3.582,7.005,5.813,14.805,6.307,23.063c0.565,9.432-1.1,18.432-4.518,26.517 c-5.163,12.208-3.931,26.328,3.461,37.33c7.11,10.581,11.332,23.278,11.511,36.978c0.136,10.353-2.05,20.195-6.075,29.032 c-4.168,9.151-2.997,19.766,2.828,27.964c8.831,12.428,14.107,27.575,14.322,43.973c0.504,38.418-26.937,70.695-63.471,77.48 l-24.472,0.643c-11.654-1.547-22.544-5.727-32.043-11.913c12.03,19.778,32.619,33.807,56.35,36.957l24.472-0.643 c36.536-6.785,63.975-39.062,63.471-77.48C333.551,264.806,328.275,249.66,319.444,237.232z"/> <path style="fill:#rgb(67, 160, 71);" d="M142.18,237.232c-5.824-8.198-6.995-18.812-2.828-27.964c4.024-8.837,6.211-18.678,6.075-29.032 c-0.179-13.7-4.401-26.397-11.511-36.978c-7.393-11.002-8.625-25.122-3.461-37.33c3.419-8.085,5.083-17.085,4.519-26.517 c-1.242-20.737-13.362-38.62-30.615-48.109c3.582,7.005,5.813,14.805,6.307,23.063c0.565,9.432-1.1,18.432-4.518,26.517 c-5.163,12.208-3.931,26.328,3.461,37.33c7.11,10.581,11.332,23.278,11.511,36.978c0.136,10.353-2.05,20.195-6.075,29.032 c-4.168,9.151-2.997,19.766,2.828,27.964c8.831,12.428,14.107,27.575,14.322,43.973c0.504,38.418-26.936,70.695-63.471,77.48 l-24.472,0.643c-11.654-1.547-22.544-5.727-32.043-11.913c12.03,19.778,32.619,33.807,56.35,36.957l24.472-0.643 c36.536-6.785,63.975-39.062,63.471-77.48C156.286,264.806,151.01,249.66,142.18,237.232z"/> </g> <path style="fill:rgb(67, 160, 71);" d="M44.431,88.831c-4.343,0-7.862-3.519-7.862-7.862c0-10.904,4.331-21.071,12.197-28.627 c7.861-7.553,18.185-11.466,29.12-11.033c4.339,0.174,7.714,3.832,7.54,8.171c-0.174,4.339-3.819,7.712-8.171,7.54 c-6.601-0.269-12.851,2.102-17.595,6.661c-4.751,4.564-7.366,10.704-7.366,17.288C52.293,85.311,48.774,88.831,44.431,88.831z"/> <path style="fill:#AA8B65;" d="M118.538,164.81L118.538,164.81c-4.76-4.76-12.551-4.76-17.311,0l-10.165,10.165v-49.679 c0-6.732-5.509-12.241-12.241-12.241s-12.241,5.509-12.241,12.241V276.94l-10.165-10.165c-4.76-4.76-12.551-4.76-17.311,0l0,0 c-4.76,4.76-4.76,12.55,0,17.311l27.476,27.476v164.156c0,6.732,5.509,12.241,12.241,12.241s12.241-5.509,12.241-12.241V209.596 l27.476-27.476C123.298,177.36,123.298,169.57,118.538,164.81z"/> <path style="fill:rgb(67, 160, 71);" d="M221.639,88.831c-4.343,0-7.862-3.519-7.862-7.862c0-10.904,4.331-21.071,12.197-28.627 c7.862-7.552,18.178-11.464,29.121-11.033c4.339,0.174,7.714,3.832,7.54,8.171s-3.831,7.712-8.171,7.54 c-6.596-0.269-12.852,2.102-17.596,6.661c-4.751,4.564-7.366,10.703-7.366,17.287C229.501,85.311,225.982,88.831,221.639,88.831z"/> <path style="fill:#AA8B65;" d="M295.747,164.81L295.747,164.81c-4.76-4.76-12.551-4.76-17.311,0l-10.165,10.165v-49.679 c0-6.732-5.509-12.241-12.241-12.241c-6.732,0-12.241,5.509-12.241,12.241V276.94l-10.165-10.165c-4.76-4.76-12.551-4.76-17.311,0 l0,0c-4.76,4.76-4.76,12.55,0,17.311l27.476,27.476v164.156c0,6.732,5.509,12.241,12.241,12.241s12.241-5.509,12.241-12.241V209.596 l27.476-27.476C300.507,177.36,300.507,169.57,295.747,164.81z"/> <path style="fill:rgb(67, 160, 71);" d="M447.672,358.684c36.535-6.785,63.975-39.062,63.471-77.48c-0.215-16.398-5.491-31.545-14.322-43.973 c-5.824-8.198-6.995-18.812-2.828-27.964c4.024-8.837,6.211-18.678,6.075-29.032c-0.179-13.7-4.401-26.397-11.511-36.978 c-7.393-11.002-8.625-25.122-3.462-37.33c3.419-8.085,5.083-17.085,4.518-26.517c-1.815-30.301-26.853-54.52-57.198-55.337 c-33.68-0.907-61.041,26.346-60.603,59.709c0.11,8.416,1.98,16.393,5.255,23.591c5.484,12.055,4.6,26.199-2.496,37.382 c-6.831,10.764-10.715,23.566-10.536,37.265c0.136,10.355,2.581,20.137,6.837,28.866c4.361,8.944,3.649,19.542-1.931,27.78 c-9.181,13.556-14.192,30.15-13.214,47.918c2.064,37.508,31.081,67.911,67.473,72.742L447.672,358.684z"/> <path style="fill:#rgb(67, 160, 71);" d="M497.672,237.232c-5.824-8.198-6.995-18.812-2.828-27.964c4.024-8.837,6.211-18.678,6.075-29.032 c-0.179-13.7-4.401-26.397-11.511-36.978c-7.393-11.002-8.625-25.122-3.461-37.33c3.419-8.085,5.083-17.085,4.519-26.517 c-1.242-20.737-13.362-38.62-30.615-48.109c3.582,7.005,5.813,14.805,6.307,23.063c0.565,9.432-1.1,18.432-4.518,26.517 c-5.163,12.208-3.931,26.328,3.461,37.33c7.11,10.581,11.332,23.278,11.511,36.978c0.136,10.353-2.05,20.195-6.075,29.032 c-4.168,9.151-2.997,19.766,2.828,27.964c8.831,12.428,14.107,27.575,14.322,43.973c0.504,38.418-26.937,70.695-63.471,77.48 l-24.472,0.643c-11.654-1.547-22.544-5.727-32.043-11.913c12.03,19.778,32.619,33.807,56.35,36.957l24.472-0.643 c36.536-6.785,63.975-39.062,63.471-77.48C511.779,264.806,506.503,249.66,497.672,237.232z"/> <path style="fill:rgb(67, 160, 71);" d="M398.848,88.831c-4.343,0-7.862-3.519-7.862-7.862c0-10.904,4.331-21.071,12.197-28.627 c7.862-7.552,18.19-11.464,29.121-11.033c4.339,0.174,7.714,3.832,7.54,8.171c-0.174,4.339-3.804,7.712-8.171,7.54 c-6.611-0.269-12.851,2.102-17.596,6.661c-4.751,4.564-7.366,10.703-7.366,17.287C406.71,85.311,403.19,88.831,398.848,88.831z"/> <path style="fill:#AA8B65;" d="M472.955,164.81L472.955,164.81c-4.76-4.76-12.551-4.76-17.311,0l-10.165,10.165v-49.679 c0-6.732-5.509-12.241-12.241-12.241s-12.241,5.509-12.241,12.241V276.94l-10.165-10.165c-4.76-4.76-12.551-4.76-17.311,0l0,0 c-4.76,4.76-4.76,12.55,0,17.311l27.476,27.476v164.156c0,6.732,5.509,12.241,12.241,12.241s12.241-5.509,12.241-12.241V209.596 l27.476-27.476C477.716,177.36,477.716,169.57,472.955,164.81z"/> <g> <path style="fill:rgb(67, 160, 71);" d="M182.345,486.073c11.93,0,21.602-9.671,21.602-21.602c0-9.66-6.342-17.834-15.089-20.598 c0.247-1.307,0.39-2.652,0.39-4.032c0-11.93-9.671-21.602-21.602-21.602c-11.93,0-21.602,9.671-21.602,21.602 c0,1.063,0.103,2.101,0.251,3.123c-11.054,0.949-19.735,10.207-19.735,21.507c0,11.93,9.671,21.602,21.602,21.602h34.183V486.073z"/> <path style="fill:rgb(67, 160, 71);" d="M361.725,486.073c11.93,0,21.602-9.671,21.602-21.602c0-9.66-6.342-17.834-15.089-20.598 c0.247-1.307,0.39-2.652,0.39-4.032c0-11.93-9.671-21.602-21.602-21.602s-21.602,9.671-21.602,21.602 c0,1.063,0.103,2.101,0.251,3.123c-11.054,0.949-19.735,10.207-19.735,21.507c0,11.93,9.671,21.602,21.602,21.602h34.183V486.073z"/> </g> </g>
</svg>